<svg width="40" height="40" viewBox="0 0 40 40" fill="none" xmlns="http://www.w3.org/2000/svg">
<rect width="40" height="40" fill="#E5E5E5"/>
<g id="&#208;&#156;&#208;&#190;&#208;&#177;_&#208;&#147;&#208;&#187;&#208;&#176;&#208;&#178;&#208;&#189;&#208;&#176;&#209;&#143;" clip-path="url(#clip0_0_1)">
<rect width="375" height="6168" transform="translate(-319 -15)" fill="white"/>
<g id="Header_mob">
<g id="Frame 18">
<rect width="375" height="70" transform="translate(-319 -15)" fill="white"/>
</g>
<g id="Menu_button">
<rect id="Rectangle 28" width="40" height="40" fill="white" fill-opacity="0.01"/>
<g id="Frame 144">
<path id="Line 9 (Stroke)" fill-rule="evenodd" clip-rule="evenodd" d="M10 14C10 13.4477 10.4477 13 11 13H29C29.5523 13 30 13.4477 30 14C30 14.5523 29.5523 15 29 15H11C10.4477 15 10 14.5523 10 14Z" fill="#525252"/>
<path id="Line 10 (Stroke)" fill-rule="evenodd" clip-rule="evenodd" d="M10 20C10 19.4477 10.4477 19 11 19H29C29.5523 19 30 19.4477 30 20C30 20.5523 29.5523 21 29 21H11C10.4477 21 10 20.5523 10 20Z" fill="#525252"/>
<path id="Line 11 (Stroke)" fill-rule="evenodd" clip-rule="evenodd" d="M10 26C10 25.4477 10.4477 25 11 25H29C29.5523 25 30 25.4477 30 26C30 26.5523 29.5523 27 29 27H11C10.4477 27 10 26.5523 10 26Z" fill="#525252"/>
</g>
</g>
</g>
</g>
<defs>
<clipPath id="clip0_0_1">
<rect width="375" height="6168" fill="white" transform="translate(-319 -15)"/>
</clipPath>
</defs>
</svg>
